<svg xmlns="http://www.w3.org/2000/svg" width="30.001" height="27.344" viewBox="0 0 30.001 27.344">
  <g id="svgexport-6_-_2022-03-22T155054.088" data-name="svgexport-6 - 2022-03-22T155054.088" transform="translate(0 -22.665)">
    <g id="Group_898" data-name="Group 898" transform="translate(0 22.665)">
      <path id="Path_544" data-name="Path 544" d="M29.164,269.27a2.855,2.855,0,0,0-3.943-.1l-3.813,3.463a2.86,2.86,0,0,0-2.623-1.727h-4.8a6.17,6.17,0,0,0-7.8-.828,2.524,2.524,0,0,0-2.46-1.974H0v12.963H3.731a2.522,2.522,0,0,0,2.258-1.4l4.154,1.4H21.118l8.009-7.724a2.858,2.858,0,0,0,.037-4.078ZM4.492,278.551a.763.763,0,0,1-.762.762H1.758v-9.447H3.731a.763.763,0,0,1,.762.762Zm23.414-6.469-7.5,7.231H10.431L6.25,277.9v-5.555a4.413,4.413,0,0,1,6.684.018l.263.306h5.589a1.1,1.1,0,1,1,0,2.2H13.771v1.758h5.015a2.859,2.859,0,0,0,2.525-1.523l5.093-4.625a1.1,1.1,0,0,1,1.5,1.606Z" transform="translate(0 -253.726)" fill="#fff"/>
      <path id="Path_545" data-name="Path 545" d="M194.609,35.713l1.544-.464a6.345,6.345,0,0,0,1.383.8l.37,1.567h4.237l.37-1.567a6.341,6.341,0,0,0,1.383-.8l1.544.464,2.118-3.669-1.173-1.1a6.469,6.469,0,0,0,0-1.6l1.173-1.1-2.118-3.669-1.544.464a6.344,6.344,0,0,0-1.383-.8l-.37-1.567h-4.237l-.37,1.567a6.345,6.345,0,0,0-1.383.8l-1.544-.464-2.118,3.669,1.173,1.1a6.469,6.469,0,0,0,0,1.6l-1.173,1.1Zm.858-4.631a4.706,4.706,0,0,1,0-1.883l.1-.48-.857-.807.727-1.259,1.13.339.367-.327a4.62,4.62,0,0,1,1.627-.941l.466-.154.271-1.147h1.454l.271,1.147.466.154a4.619,4.619,0,0,1,1.627.941l.367.327,1.13-.339.727,1.259-.857.807.1.48a4.7,4.7,0,0,1,0,1.883l-.1.48.857.807-.727,1.259-1.13-.339-.367.327a4.618,4.618,0,0,1-1.627.941l-.466.154-.271,1.147H199.3l-.271-1.147-.466-.154a4.62,4.62,0,0,1-1.627-.941l-.367-.327-1.13.339-.727-1.259.857-.807Z" transform="translate(-181.212 -22.665)" fill="#fff"/>
      <path id="Path_546" data-name="Path 546" d="M274.3,106.4a2.91,2.91,0,1,0-2.91-2.91A2.913,2.913,0,0,0,274.3,106.4Zm0-4.062a1.152,1.152,0,1,1-1.152,1.152A1.153,1.153,0,0,1,274.3,102.342Z" transform="translate(-255.49 -96.018)" fill="#fff"/>
    </g>
  </g>
</svg>
