<svg xmlns="http://www.w3.org/2000/svg" width="25.41" height="34.394" viewBox="0 0 25.41 34.394">
  <g id="address" transform="translate(-48.08)">
    <g id="Group_67471" data-name="Group 67471" transform="translate(48.08)">
      <g id="Group_67470" data-name="Group 67470" transform="translate(0)">
        <g id="Group_67469" data-name="Group 67469">
          <path id="Path_866" data-name="Path 866" d="M60.785,0A12.719,12.719,0,0,0,48.08,12.705,14.659,14.659,0,0,0,49.158,17.6a20.49,20.49,0,0,0,1.469,2.747l8.711,13.2a1.657,1.657,0,0,0,2.9,0l8.712-13.2A20.4,20.4,0,0,0,72.413,17.6a14.655,14.655,0,0,0,1.077-4.891A12.719,12.719,0,0,0,60.785,0Zm10.25,17.017a18.774,18.774,0,0,1-1.339,2.5l-8.712,13.2c-.172.261-.226.261-.4,0l-8.712-13.2a18.782,18.782,0,0,1-1.339-2.5,13.306,13.306,0,0,1-.961-4.311,11.21,11.21,0,0,1,22.421,0A13.316,13.316,0,0,1,71.035,17.017Z" transform="translate(-48.08)" fill="#fff"/>
          <path id="Path_867" data-name="Path 867" d="M118.806,64.008a6.726,6.726,0,1,0,6.726,6.726A6.734,6.734,0,0,0,118.806,64.008Zm0,11.958a5.232,5.232,0,1,1,5.232-5.232A5.238,5.238,0,0,1,118.806,75.966Z" transform="translate(-106.101 -58.028)" fill="#fff"/>
        </g>
      </g>
    </g>
  </g>
</svg>
