<svg xmlns="http://www.w3.org/2000/svg" width="27.771" height="27.755" viewBox="0 0 27.771 27.755">
  <g id="event_icon" data-name="event icon" transform="translate(0 -0.139)">
    <path id="Path_550" data-name="Path 550" d="M148.736,211.815a.407.407,0,0,0-.407-.407H138.12a.407.407,0,0,0,0,.814h10.209A.407.407,0,0,0,148.736,211.815Z" transform="translate(-130.243 -199.81)" fill="#fff"/>
    <path id="Path_551" data-name="Path 551" d="M138.12,285.577a.407.407,0,1,0,0,.814h6.718a.407.407,0,1,0,0-.814Z" transform="translate(-130.243 -269.955)" fill="#fff"/>
    <path id="Path_552" data-name="Path 552" d="M151.474,66.347V64.141A1.072,1.072,0,0,0,150.4,63.07h-11.62a1.072,1.072,0,0,0-1.071,1.071v2.206a1.072,1.072,0,0,0,1.071,1.071h.9a.407.407,0,1,0,0-.814h-.9a.258.258,0,0,1-.258-.258V64.141a.258.258,0,0,1,.258-.258H150.4a.258.258,0,0,1,.258.258v2.206a.258.258,0,0,1-.258.258h-8.815a.407.407,0,0,0,0,.814H150.4a1.073,1.073,0,0,0,1.071-1.071Z" transform="translate(-130.242 -59.518)" fill="#fff"/>
    <path id="Path_553" data-name="Path 553" d="M23.283,15.516a.407.407,0,0,0-.407.407V26.534a.547.547,0,0,1-.547.547H5.926V.953h16.4a.547.547,0,0,1,.547.547V8.274a.407.407,0,1,0,.814,0V1.5A1.362,1.362,0,0,0,22.33.139H3.05A1.362,1.362,0,0,0,1.689,1.5V2.7H1.258a1.258,1.258,0,0,0,0,2.515h.432V7.73H1.258a1.258,1.258,0,1,0,0,2.515h.432v2.513H1.258a1.258,1.258,0,1,0,0,2.515h.432v2.513H1.258a1.258,1.258,0,1,0,0,2.515h.432v2.513H1.258a1.258,1.258,0,1,0,0,2.515h.432v1.2a1.362,1.362,0,0,0,1.36,1.36H22.33a1.362,1.362,0,0,0,1.36-1.36V15.923a.407.407,0,0,0-.407-.407ZM1.258,4.4a.444.444,0,1,1,0-.888H2.935a.444.444,0,1,1,0,.888Zm0,5.029a.444.444,0,1,1,0-.888H2.935a.444.444,0,1,1,0,.888Zm0,5.029a.444.444,0,1,1,0-.888H2.935a.444.444,0,1,1,0,.888Zm0,5.029a.444.444,0,0,1,0-.888H2.935a.444.444,0,0,1,0,.888Zm0,5.029a.444.444,0,0,1,0-.888H2.935a.444.444,0,0,1,0,.888Zm3.855,2.563H3.05a.547.547,0,0,1-.547-.547v-1.2h.432a1.258,1.258,0,0,0,0-2.515H2.5V20.3h.432a1.258,1.258,0,0,0,0-2.515H2.5V15.274h.432a1.258,1.258,0,0,0,0-2.515H2.5V10.246h.432a1.258,1.258,0,0,0,0-2.515H2.5V5.217h.432a1.258,1.258,0,0,0,0-2.515H2.5V1.5A.547.547,0,0,1,3.05.953H5.112V27.081Z" transform="translate(0 0)" fill="#fff"/>
    <path id="Path_554" data-name="Path 554" d="M183.6,137.413a1.8,1.8,0,0,0-2.552,0l-13.518,13.519c-.058.058.06-.1-2.041,3.155a1.041,1.041,0,0,0,1.438,1.438l3.034-1.952a1.622,1.622,0,0,0,.215-.183L183.6,139.965A1.807,1.807,0,0,0,183.6,137.413Zm-17.114,17.428a.227.227,0,0,1-.314-.314l1.726-2.683,1.27,1.27Zm3.324-2.236-1.4-1.4,11.05-11.05,1.4,1.4ZM183.02,139.39l-1.589,1.589-1.4-1.4,1.589-1.589a.991.991,0,1,1,1.4,1.4Z" transform="translate(-156.353 -129.328)" fill="#fff"/>
  </g>
</svg>
