<svg xmlns="http://www.w3.org/2000/svg" width="27.172" height="27.172" viewBox="0 0 27.172 27.172">
  <g id="link_event" data-name="link event" transform="translate(-6.065 -6.065)">
    <g id="Group_67509" data-name="Group 67509" transform="translate(6.065 6.065)">
      <g id="ARC_176_" transform="translate(7.353 8.785)">
        <g id="Group_67501" data-name="Group 67501">
          <path id="Path_876" data-name="Path 876" d="M28.557,26.461a1.043,1.043,0,0,1-.741-.307,4.2,4.2,0,0,0-5.927,0,1.048,1.048,0,1,1-1.481-1.481,6.292,6.292,0,0,1,8.89,0,1.048,1.048,0,0,1-.741,1.788Z" transform="translate(-20.101 -22.834)" fill="#fff"/>
        </g>
      </g>
      <g id="ARC_175_" transform="translate(10.316 14.762)">
        <g id="Group_67502" data-name="Group 67502">
          <path id="Path_877" data-name="Path 877" d="M30.51,37.871a6.267,6.267,0,0,1-4.445-1.838,1.048,1.048,0,0,1,1.481-1.481,4.2,4.2,0,0,0,5.927,0,1.048,1.048,0,0,1,1.481,1.481,6.268,6.268,0,0,1-4.445,1.838Z" transform="translate(-25.758 -34.244)" fill="#fff"/>
        </g>
      </g>
      <g id="LINE_273_" transform="translate(17.724 8.909)">
        <g id="Group_67503" data-name="Group 67503">
          <path id="Path_878" data-name="Path 878" d="M40.947,31.019a1.048,1.048,0,0,1-.741-1.788l5.852-5.852A1.048,1.048,0,0,1,47.54,24.86l-5.852,5.852a1.043,1.043,0,0,1-.741.307Z" transform="translate(-39.899 -23.071)" fill="#fff"/>
        </g>
      </g>
      <g id="LINE_272_" transform="translate(8.909 20.305)">
        <g id="Group_67504" data-name="Group 67504">
          <path id="Path_879" data-name="Path 879" d="M24.119,50.193a1.048,1.048,0,0,1-.741-1.788l3.271-3.271a1.048,1.048,0,1,1,1.481,1.481L24.86,49.886A1.043,1.043,0,0,1,24.119,50.193Z" transform="translate(-23.071 -44.826)" fill="#fff"/>
        </g>
      </g>
      <g id="LINE_271_" transform="translate(1.5 10.316)">
        <g id="Group_67505" data-name="Group 67505">
          <path id="Path_880" data-name="Path 880" d="M9.977,33.705a1.048,1.048,0,0,1-.741-1.788l5.852-5.852a1.048,1.048,0,1,1,1.481,1.481L10.718,33.4a1.047,1.047,0,0,1-.741.307Z" transform="translate(-8.929 -25.758)" fill="#fff"/>
        </g>
      </g>
      <g id="LINE_270_" transform="translate(12.897 1.5)">
        <g id="Group_67506" data-name="Group 67506">
          <path id="Path_881" data-name="Path 881" d="M31.732,14.3a1.047,1.047,0,0,1-.741-1.788l3.271-3.272a1.048,1.048,0,0,1,1.482,1.482L32.473,13.99A1.049,1.049,0,0,1,31.732,14.3Z" transform="translate(-30.684 -8.929)" fill="#fff"/>
        </g>
      </g>
      <g id="ARC_174_" transform="translate(0 16.168)">
        <g id="Group_67507" data-name="Group 67507" transform="translate(0 0)">
          <path id="Path_882" data-name="Path 882" d="M12.317,47.933a6.268,6.268,0,0,1-4.445-1.807,6.37,6.37,0,0,1,0-8.89,1.048,1.048,0,0,1,1.481,1.481,4.191,4.191,0,0,0,5.927,5.927,1.048,1.048,0,0,1,1.481,1.481A6.266,6.266,0,0,1,12.317,47.933Z" transform="translate(-6.065 -36.928)" fill="#fff"/>
        </g>
      </g>
      <g id="ARC_173_" transform="translate(16.168)">
        <g id="Group_67508" data-name="Group 67508">
          <path id="Path_883" data-name="Path 883" d="M45.385,17.069a1.048,1.048,0,0,1-.741-1.788,4.191,4.191,0,0,0-5.927-5.927,1.048,1.048,0,0,1-1.481-1.481,6.286,6.286,0,0,1,8.89,8.89,1.046,1.046,0,0,1-.741.306Z" transform="translate(-36.929 -6.065)" fill="#fff"/>
        </g>
      </g>
    </g>
  </g>
</svg>
