<svg xmlns="http://www.w3.org/2000/svg" width="39.254" height="25.362" viewBox="0 0 39.254 25.362">
  <g id="sitting_icon" data-name="sitting icon" transform="translate(-89.891 -93.416)">
    <g id="Group_67481" data-name="Group 67481" transform="translate(89.891 93.416)">
      <g id="Group_67480" data-name="Group 67480" transform="translate(0 0)">
        <path id="Path_870" data-name="Path 870" d="M38.14,101.829h-.326V98.61a.575.575,0,0,0-1.15,0v3.22h-5.2v-1.007a3.241,3.241,0,0,0-3.237-3.237H27.99V93.833a2.089,2.089,0,0,1,2.087-2.087h4.5a2.089,2.089,0,0,1,2.087,2.087V95.91a.575.575,0,1,0,1.15,0V93.833A3.241,3.241,0,0,0,34.577,90.6h-4.5a3.241,3.241,0,0,0-3.237,3.237v3.752H25.112V93.833A3.241,3.241,0,0,0,21.875,90.6h-4.5a3.241,3.241,0,0,0-3.237,3.237v3.752H12.414V93.833A3.241,3.241,0,0,0,9.176,90.6h-4.5A3.241,3.241,0,0,0,1.44,93.833v2.105a.575.575,0,1,0,1.15,0V93.833a2.089,2.089,0,0,1,2.087-2.087h4.5a2.089,2.089,0,0,1,2.087,2.087v3.752h-.239a3.241,3.241,0,0,0-3.237,3.237v1.007H2.59V98.614a.575.575,0,1,0-1.15,0v3.215H1.114A1.115,1.115,0,0,0,0,102.943V104.5a1.115,1.115,0,0,0,1.114,1.114h.625v2.246a.575.575,0,0,0,.2,1.113H4.527a.575.575,0,0,0,.183-1.12v-2.239H7.787v3.207H7.461a1.115,1.115,0,0,0-1.114,1.114v1.554A1.115,1.115,0,0,0,7.461,112.6h.625v2.246a.575.575,0,0,0,.2,1.113h2.587a.575.575,0,0,0,.183-1.12V112.6h4.415v2.246a.575.575,0,0,0,.2,1.113h2.587a.575.575,0,0,0,.182-1.12V112.6h.644a1.106,1.106,0,0,0,.538-.139,1.106,1.106,0,0,0,.538.139h.625v2.246a.575.575,0,0,0,.2,1.113h2.587a.575.575,0,0,0,.183-1.12V112.6h4.415v2.246a.575.575,0,0,0,.2,1.113h2.587a.575.575,0,0,0,.183-1.12V112.6h.644a1.115,1.115,0,0,0,1.114-1.114v-1.554a1.115,1.115,0,0,0-1.114-1.114h-.326v-3.207h3.062v2.246a.575.575,0,0,0,.2,1.113h2.587a.575.575,0,0,0,.183-1.12v-2.239h.644a1.115,1.115,0,0,0,1.114-1.114v-1.554A1.115,1.115,0,0,0,38.14,101.829Zm-9.914-3.094h0a2.089,2.089,0,0,1,2.087,2.087v8H21.639v-8a2.089,2.089,0,0,1,2.087-2.087Zm-12.938-4.9h0a2.089,2.089,0,0,1,2.087-2.087h4.5a2.089,2.089,0,0,1,2.087,2.087v3.752h-.236a3.241,3.241,0,0,0-3.237,3.237v1.007H18.761v-1.007a3.241,3.241,0,0,0-3.237-3.237h-.236V93.833Zm5.2,9.146v1.481H18.761v-1.481ZM8.937,100.822a2.089,2.089,0,0,1,2.087-2.087h4.5a2.089,2.089,0,0,1,2.087,2.087v8H8.937Zm-5.378,7H2.888v-2.209h.671ZM1.15,104.461v-1.481H7.787v1.481Zm8.757,10.348H9.236V112.6h.671Zm7.387,0h-.671V112.6h.671Zm1.756-3.359H7.5v-1.481H19.049Zm1.114-2.631a1.106,1.106,0,0,0-.538.139,1.106,1.106,0,0,0-.538-.139h-.326v-3.207h1.728v3.207Zm2.446,5.99h-.671V112.6h.671Zm7.386,0h-.671V112.6H30Zm1.757-4.84v1.481H20.2v-1.481Zm4.594-2.149h-.671v-2.209h.671Zm1.757-3.359H31.463v-1.481H38.1Z" transform="translate(0 -90.596)" fill="#fff"/>
      </g>
    </g>
  </g>
</svg>
