<svg xmlns="http://www.w3.org/2000/svg" width="27.013" height="24.973" viewBox="0 0 27.013 24.973">
  <g id="time" transform="translate(0 0)">
    <g id="Group_67662" data-name="Group 67662" transform="translate(0 0)">
      <g id="Layer_1_65_">
        <g id="Group_67661" data-name="Group 67661">
          <path id="Path_23966" data-name="Path 23966" d="M26.959,12.319a.568.568,0,0,0-.515-.327H24.762A12.477,12.477,0,1,0,23.3,20.508a1.135,1.135,0,0,0-1.965-1.137,10.227,10.227,0,1,1,1.1-7.378H20.77a.568.568,0,0,0-.437.931l2.838,3.405a.568.568,0,0,0,.872,0l2.838-3.405A.567.567,0,0,0,26.959,12.319Z" transform="translate(0 -1.775)" fill="#ee634e"/>
          <path id="Path_23967" data-name="Path 23967" d="M20.256,6.713a1.135,1.135,0,0,0-1.135,1.135v6.888a1.984,1.984,0,0,0,1.136,3.613,1.962,1.962,0,0,0,.838-.192l3.948,2.279a1.123,1.123,0,0,0,.567.153,1.135,1.135,0,0,0,.568-2.118l-3.952-2.282a1.977,1.977,0,0,0-.833-1.452V7.848A1.137,1.137,0,0,0,20.256,6.713Zm0,10.5a.851.851,0,1,1,.851-.851A.852.852,0,0,1,20.256,17.213Z" transform="translate(-7.77 -3.875)" fill="#ee634e"/>
        </g>
      </g>
    </g>
  </g>
</svg>
